<svg xmlns="http://www.w3.org/2000/svg" width="60" height="60" viewBox="0 0 60 60"><defs><style>.a{fill:none;}.b{fill:#0072d8;}</style></defs><g transform="translate(-520 -1840)"><g transform="translate(520 1840)"><rect class="a" width="60" height="60"/></g><g transform="translate(539.613 1845.995)"><g transform="translate(8.795 0.315)"><path class="b" d="M540.434,1844.207a1.5,1.5,0,0,1,1.5,1.5v28.278a1.5,1.5,0,0,1-3,0v-28.278A1.5,1.5,0,0,1,540.434,1844.207Z" transform="translate(-538.939 -1844.207)"/></g><path class="b" d="M543.375,1844a1.5,1.5,0,0,1,1.059,2.556l-8.733,8.73a1.5,1.5,0,1,1-2.251-1.983,1.653,1.653,0,0,1,.135-.135l8.729-8.73A1.508,1.508,0,0,1,543.375,1844Z" transform="translate(-533.076 -1843.997)"/><g transform="translate(8.921)"><path class="b" d="M540.52,1844a1.5,1.5,0,0,1,1.059.438l8.9,8.9a1.5,1.5,0,0,1-2.118,2.117l-8.9-8.9a1.5,1.5,0,0,1,1.06-2.554Z" transform="translate(-539.023 -1843.997)"/></g></g><g transform="translate(526.133 1860.875)"><path class="b" d="M568.15,1886.863H527.79a3.711,3.711,0,0,1-3.7-3.7v-25.54a3.71,3.71,0,0,1,3.7-3.7h11.347a1.5,1.5,0,0,1,0,3H527.79a.708.708,0,0,0-.71.708h0v25.531a.708.708,0,0,0,.708.71H568.15a.71.71,0,0,0,.709-.71h0v-25.536a.71.71,0,0,0-.709-.711H556.879a1.5,1.5,0,0,1,0-2.994H568.15a3.707,3.707,0,0,1,3.7,3.7v25.531A3.708,3.708,0,0,1,568.15,1886.863Z" transform="translate(-524.089 -1853.917)"/></g></g></svg>