<svg xmlns="http://www.w3.org/2000/svg" width="24" height="24" viewBox="0 0 24 24"><defs><style>.a{fill:none;}.b{fill:#fff;}</style></defs><g transform="translate(0.002)"><rect class="a" width="23.998" height="23.999"/></g><rect class="a" width="23.998" height="23.999" transform="translate(0 0.001)"/><g transform="translate(2.412 2.414)"><path class="b" d="M210.393,202.4a8.375,8.375,0,0,1,5.935,2.459,8.484,8.484,0,0,1,1.026,1.243,8.387,8.387,0,0,1-1.026,10.627,8.482,8.482,0,0,1-1.243,1.026,8.386,8.386,0,0,1-10.626-1.026,8.479,8.479,0,0,1-1.026-1.243,8.387,8.387,0,0,1,1.026-10.627,8.484,8.484,0,0,1,1.243-1.026,8.343,8.343,0,0,1,4.692-1.433m0-1.2a9.594,9.594,0,1,0,9.593,9.594,9.593,9.593,0,0,0-9.593-9.594Z" transform="translate(-200.8 -201.2)"/></g><g transform="translate(8.557 5.972)"><path class="b" d="M716.432,507.335a.6.6,0,0,1-.6-.6V504.3a.6.6,0,0,1,.6-.6,2.4,2.4,0,1,0-2.288-3.123.6.6,0,1,1-1.143-.361,3.6,3.6,0,0,1,3.433-2.515,3.6,3.6,0,0,1,.6,7.149v1.885A.6.6,0,0,1,716.432,507.335Z" transform="translate(-712.972 -497.7)"/></g><g transform="translate(11.405 16.76)"><ellipse class="b" cx="0.618" cy="0.618" rx="0.618" ry="0.618"/></g></svg>