<svg xmlns="http://www.w3.org/2000/svg" width="60" height="60" viewBox="0 0 60 60"><defs><style>.a{fill:none;}.b{fill:#0072d8;}</style></defs><g transform="translate(-1168 -1800)"><rect class="a" width="60" height="60" transform="translate(1168 1800)"/><path class="b" d="M1219.49,1846.941l-3.708-5.9A23.691,23.691,0,0,0,1219.6,1828,23.8,23.8,0,1,0,1195.8,1852h20.917a3.277,3.277,0,0,0,2.873-1.713A3.317,3.317,0,0,0,1219.49,1846.941Zm-35.037-15.531a3.524,3.524,0,1,1,3.395-3.65A3.525,3.525,0,0,1,1184.454,1831.41Zm11.5,0a3.524,3.524,0,1,1,3.4-3.65A3.523,3.523,0,0,1,1195.954,1831.41Zm11.5,0a3.524,3.524,0,1,1,3.4-3.65A3.525,3.525,0,0,1,1207.456,1831.41Z" transform="translate(2.001 2.001)"/></g></svg>